<?xml version="1.0" encoding="utf-8"?>
<svg version="1.1" id="Livello_1" xmlns="http://www.w3.org/2000/svg" xmlns:xlink="http://www.w3.org/1999/xlink" x="0px" y="0px"
	 viewBox="0 0 1624 732.1" enable-background="new 0 0 1624 732.1" xml:space="preserve">
<g>
	<path fill-rule="evenodd" clip-rule="evenodd" fill="#FFFFFF" d="M1624,243.1v-7c-1.9-5.4-4.5-10.1-9-13c-25.2,5.5-43.4,17.9-66,26
		c-3.3-9.8-17.5-13.7-18-23c11.2-4.2,26.9-7.9,26-21c-1.7-23.9-40.6,6.2-51,7c-6.6-13.6-16.5-18-27.6-17.5
		c-4.9,3.2-8.8,20.7-4.4,30.5c-7.1-6.7-5.2-22.7,0-30c0,0,0,0,0,0c-20.3,3.2-43.4,20.7-57,29c-4.3,12.6-2.4,29.4-1,44
		c-9.4-0.4-19.4,1.7-22,5c-2.6,3.3,0.6,8.8,0,12c-50,12.4-95.2,30.9-134,54c-12.7,7.5-26.5,17.7-41,22c-14.6,4.3-43.6,4-48-7
		c-6.2-15.3,11.4-46,18-62c6.5-15.7,22.8-43.3,21-62c-1.4-14.9-17.8-22.8-32-31c-6.8-3.9-35.2-13.9-37-21c-1.6-6,3.1-13.1,3-18
		c-0.3-9.9-5.1-21.5-12-25c-34-17.5-58.3,32.9-38,64c-19.4,53.3-40.3,124.5-86,153c-14.8,9.2-60.2,19.8-68-2
		c-4.7-13.1,5.4-34.6,10-47c11.5-31.1,22.9-56,35-83c5.9-13.3,20.7-34.7,14-44c-6.7-9.3-40.1-11.3-43-11c-10.7,1.7-11.6,17.8-21,19
		c-5.5,0.7-15.2-6.2-21-8c-51.4-15.5-101.2,15.4-127,44c-24.4,27.1-40.4,58.8-46,104c-17,18-52,46-86,31c47-46.1,85.3-115,106-191
		c15.2-55.9,33.8-140.5-34-151c-6.8-1.4-14-1.7-20,0c-64,21.1-91,87.2-108,156c-12.6,51-21.1,113.4-31,169c-1.5,8.4-1.3,18.3-4,24
		c-3.5,7.2-23.7,19.8-31,26c-50.1,43-94,98.3-122,163c-22.5,52-39.8,150.5,21,177c4.9,2.1,13,2.8,19,4h6c35.3-4.9,58.6-33.3,75-60
		c46.7-76.3,62.2-187.7,83-283c53.3,7.9,98.2-7.9,129-29c6.5,13.2,12.7,24.4,24,31c43.1,25.1,89.6-16.4,109-40
		c6.4-7.8,9.8-17.9,18-22c-1.7,11.8-7.1,20.4-5,34c3.5,22.6,30.2,29.7,54,31c39.1,2.2,76.3-7.9,96-28c39.4-40.1,64.2-99.5,84-148
		c11,6.6,26.8,10.9,27,26c0.1,6.6-6.6,15.3-10,24c-9.4,24-21.8,55.2-24,80c-5.3,59,88.6,52,125,36c16.6-7.3,28.3-20.1,44-32
		c29.6-22.5,63-37.7,110-42c2.7,11.9,21,4,31,7c6.1,9.5,9.3,21.1,16,32c4.9,8.1,15.4,22.1,25,23c10.6,1,26.3-7.1,38-11
		c13.4-4.5,25.5-8,37-13c8.5-14.2-0.5-25,8-38c9.2-14.1,48.3-7,34-35c-9.3-3.5-16.6,2.4-25,3C1571.1,256.2,1607.6,259.8,1624,243.1
		 M498,630.1c-7,16.3-22.2,54.4-42,54c-17.1-0.3-22.9-27.8-23-49c-0.2-52.6,17.8-98,39-139c21.6-41.8,52-74.7,84-97
		c0.9-0.2,0.9,0.4,1,1C539,478.5,528.2,559.9,498,630.1 M625,324.1c3.8-63.9,15.2-149.1,38-205c10-24.6,32.5-63.4,57-54
		c24.5,9.4,2.9,62.6-6,88c-18.8,53.9-39.2,105.4-68,149C640.5,310.5,635.1,321.4,625,324.1 M902,263.1c-16.6,30.1-30.2,46.8-51,71
		c-8,9.3-23.4,30.3-41,22c-20.7-9.7-7.9-46.1,0-64c15-34.1,43-71.6,84-77c5.9-0.8,22.3-3.3,26,6C923.7,230.3,906.7,254.6,902,263.1
		 M1490,217.1c1.1-0.4,2.1-0.4,3,0c1.1,10.2,0.3,25.4,13,21C1495.6,261.2,1479.5,227.7,1490,217.1 M1530,323.1
		c-13,3.1-21.7-23.9-9-30c1.1,5.1-2.9,25.8,13,22C1535.1,320.2,1532.5,322.9,1530,323.1 M1551,282.1c-11.8,2-18.9-10.5-18-26
		c0.8-3.1,3.5-5.5,6-6c-0.7,9.7,0.1,29.1,13,25C1554.6,276.5,1552.8,281,1551,282.1"/>
	<path fill-rule="evenodd" clip-rule="evenodd" fill="#FFFFFF" d="M0,364.1v-18c8.9-55.2,70.7-45.1,124-34c14.5,3,30.8,7.7,48,12
		c14.7,3.7,38.9,13.4,49,10c6.5-2.2,11.4-15,15-24c7.7-19.3,9.3-39.9,0-56c-31-53.5-121.5-44.7-121-130c0.3-57.6,45.8-96.9,90-114
		C244.1-5,308.6-5.6,336,25.1c6,6.7,14.5,22.7,13,37c-0.9,8.9-9.3,31.7-27,24c-9.8-4.2-8.6-19.7-13-25c-20.6-24.9-72.9-24.3-102-9
		c-19.9,10.5-43.9,37.9-39,67c6.5,38.6,63.9,50.2,95,73c16.4,12,31.6,34,34,57c3.3,31.9-6.5,61.1-16,89c10.9,3.4,23.3,6.9,36,5
		c9-1.3,31-12,33-19c1.1-3.9-1.5-14.1-1-21c4.7-67.8,39.6-116.6,88-141c7.4-3.8,56-19.9,57,0c0.3,6.9-17.2,16.7-22,22
		c-23.2,25.5-48.4,63-61,103c-4.1,13.1-9.8,32.7-4,47c5.9,14.5,29.6,13.5,41,8c24-11.6,32.3-37.5,41-63c2.8-8.2,12.4-26,11-38
		c-1.3-11.3-13.8-13.6-17-27c-4.7-19.8,1.6-40.5,16-46c28.1-10.8,49.6,12.5,52,37c5.6,57.6-27.5,123.1-57,149
		c-34,29.8-104.6,37.6-133,0c-17.1,15.2-49.4,21.6-80,20c-6.8-0.4-14.9-3.3-21-2c-6.6,1.4-15,11-22,17c-22.5,19.2-42.8,32.3-78,39
		C90.6,441.3,15.6,417.5,0,364.1 M128,350.1c-22.9-5-46.6-10.2-67-13c-9.8-1.3-18.4,10-19,17c-2.4,27.5,43.1,39.1,71,39
		c15.5,0,30.5-3.6,44-8c13.7-4.4,28.6-8.4,34-18C174.5,358.2,151.1,355.2,128,350.1"/>
</g>
</svg>
